<?xml version="1.0" encoding="UTF-8" standalone="no"?>
<svg
   xmlns:dc="http://purl.org/dc/elements/1.1/"
   xmlns:cc="http://creativecommons.org/ns#"
   xmlns:rdf="http://www.w3.org/1999/02/22-rdf-syntax-ns#"
   xmlns:svg="http://www.w3.org/2000/svg"
   xmlns="http://www.w3.org/2000/svg"
   xmlns:sodipodi="http://sodipodi.sourceforge.net/DTD/sodipodi-0.dtd"
   xmlns:inkscape="http://www.inkscape.org/namespaces/inkscape"
   inkscape:export-ydpi="96"
   inkscape:export-xdpi="96"
   inkscape:export-filename="/home/jonty/Documents/clouds-logo.png"
   width="100"
   height="100"
   viewBox="0 0 26.458333 26.458333"
   version="1.1"
   id="svg34"
   inkscape:version="1.0 (4035a4fb49, 2020-05-01)"
   sodipodi:docname="clouds-logo.svg">
  <defs
     id="defs28" />
  <sodipodi:namedview
     id="base"
     pagecolor="#ffffff"
     bordercolor="#666666"
     borderopacity="1.0"
     inkscape:pageopacity="0.0"
     inkscape:pageshadow="2"
     inkscape:zoom="3.959798"
     inkscape:cx="56.140734"
     inkscape:cy="36.46591"
     inkscape:document-units="mm"
     inkscape:current-layer="layer1"
     inkscape:document-rotation="0"
     showgrid="false"
     units="px"
     inkscape:window-width="1920"
     inkscape:window-height="1016"
     inkscape:window-x="0"
     inkscape:window-y="27"
     inkscape:window-maximized="1"
     inkscape:snap-global="false">
    <inkscape:grid
       type="xygrid"
       id="grid898" />
  </sodipodi:namedview>
  <metadata
     id="metadata31">
    <rdf:RDF>
      <cc:Work
         rdf:about="">
        <dc:format>image/svg+xml</dc:format>
        <dc:type
           rdf:resource="http://purl.org/dc/dcmitype/StillImage" />
        <dc:title />
      </cc:Work>
    </rdf:RDF>
  </metadata>
  <g
     inkscape:groupmode="layer"
     id="layer2"
     inkscape:label="BG"
     style="display:none">
    <rect
       style="fill:#000000;fill-opacity:1;stroke:#131313;stroke-width:0.264583;stroke-opacity:1"
       id="rect953"
       width="63.619972"
       height="45.266811"
       x="-17.679092"
       y="-9.3347797" />
  </g>
  <g
     inkscape:label="Layer 1"
     inkscape:groupmode="layer"
     id="layer1">
    <path
       id="path54"
       style="fill:#de74d1;fill-opacity:1;fill-rule:evenodd;stroke:#ffffff;stroke-width:0.772;stroke-miterlimit:4;stroke-dasharray:none;stroke-opacity:1"
       d="M 12.341361,5.6245966 C 10.441594,5.624597 8.8066938,6.8404099 8.0418281,8.5950141 7.7657997,8.5254929 7.4798235,8.4848576 7.1844298,8.484858 c -1.4827377,0 -2.7636015,0.9278807 -3.3905932,2.278333 -0.2315504,-0.05494 -0.4714539,-0.08585 -0.718098,-0.08585 -1.2004895,0 -2.54221368,1.31462 -2.54221368,2.957936 0,1.588475 1.06751998,2.90233 2.87125768,2.95717 l 13.1499624,-0.01599 c 1.882717,0 3.181677,-1.275666 3.173074,-2.835969 C 19.716269,11.64608 18.59835,10.773723 17.085267,10.393972 16.885935,7.7242884 14.840362,5.6245958 12.341361,5.6245954 Z"
       sodipodi:nodetypes="scscssccscss" />
    <path
       sodipodi:nodetypes="scscssccscss"
       d="m 18.549155,9.7651004 c -1.899767,5e-7 -3.534668,1.2158136 -4.299533,2.9704186 -0.276029,-0.06952 -0.562005,-0.110157 -0.857399,-0.110156 -1.482737,0 -2.763601,0.927881 -3.390593,2.278333 -0.2315496,-0.05494 -0.4714536,-0.08585 -0.7180973,-0.08585 -1.2004896,0 -2.5422138,1.314619 -2.5422138,2.957935 0,1.588474 1.0675199,2.90233 2.8712575,2.95717 l 13.1499626,-0.01599 c 1.882716,0 3.181676,-1.275667 3.173073,-2.83597 -0.01155,-2.09441 -1.129468,-2.966767 -2.642552,-3.346517 -0.199332,-2.669681 -2.244905,-4.7693743 -4.743905,-4.7693748 z"
       style="fill:#a852db;fill-opacity:1;fill-rule:evenodd;stroke:#ffffff;stroke-width:0.772;stroke-miterlimit:4;stroke-dasharray:none;stroke-opacity:1"
       id="path54-6" />
  </g>
</svg>
